<?xml version="1.0" encoding="utf-8"?>
<!-- Generator: Adobe Illustrator 21.0.0, SVG Export Plug-In . SVG Version: 6.00 Build 0)  -->
<svg version="1.1" id="Camada_1" xmlns="http://www.w3.org/2000/svg" xmlns:xlink="http://www.w3.org/1999/xlink" x="0px" y="0px"
	 viewBox="0 0 460.3 73.2" style="enable-background:new 0 0 460.3 73.2;" xml:space="preserve">
<style type="text/css">
	.st0{fill:#FFFFFF;}
	.st1{fill:#FF7300;}
	.st2{fill:#F86D00;}
	.st3{fill-rule:evenodd;clip-rule:evenodd;fill:#FCFCFC;}
</style>
<g>
	<g>
		<g>
			<path class="st0" d="M49.8,7.6h13.8v5.5h-7.8v9.5h5.6v5.8h-5.6v9.9h7.8v5.5H49.8V7.6z"/>
			<path class="st0" d="M76.9,17.3c0-1.2-0.1-2.5-0.4-3.5c-0.4-1-1-1.7-2-1.7c-1.6,0-2.1,1.5-2.1,3.6c0,1.2,0.6,2.5,1.5,3.9
				c0.9,1.4,2.1,2.8,3.2,4.3c1.4,1.8,2.8,3.7,3.8,5.5s1.8,3.7,1.8,5.7c0,2.4-0.4,4.7-1.7,6.3c-1.3,1.7-3.3,2.8-6.6,2.8
				c-3.8,0-6-1.3-7.3-3.2c-1.2-2-1.5-4.6-1.5-7.3l5.9-0.5c0,1.5,0.1,3,0.5,4.2c0.4,1.2,1.1,2,2.3,2c1.8,0,2.5-1.7,2.5-4
				c0-1.2-0.7-2.6-1.6-4c-0.5-0.7-1-1.4-1.6-2.2c-1.2-1.5-2.5-3.1-3.8-5c-1.3-1.8-2.3-3.7-3-5.6c-0.3-0.9-0.5-1.9-0.5-2.9
				c0-2,0.5-4.1,1.8-5.7c1.3-1.6,3.2-2.7,6.1-2.8c3.6,0,5.7,1.3,6.9,3.2c1.2,2,1.5,4.4,1.5,6.4L76.9,17.3z"/>
			<path class="st0" d="M101.8,31.4v5c-0.1,1.5-0.4,2.8-1,3.9c-0.5,1-1.3,1.9-2.4,2.7c-1.1,0.8-2.6,1.2-4.6,1.2
				c-2,0-3.6-0.4-4.7-1.2c-1.1-0.7-1.8-1.7-2.3-2.7c-0.6-1.1-0.9-2.5-1-3.9V15c0.1-1.4,0.4-2.8,1-3.9c0.5-1,1.2-2,2.3-2.7
				c1.1-0.7,2.7-1.2,4.7-1.2c2,0,3.5,0.5,4.6,1.2c1.1,0.7,1.9,1.7,2.4,2.7c0.6,1.1,0.9,2.5,1,3.9v5h-5.6v-5c0-1-0.3-1.7-0.9-2.3
				c-0.3-0.2-0.8-0.4-1.4-0.4c-1.1,0-1.6,0.7-1.8,1.3c-0.2,0.4-0.2,0.8-0.3,1.3v21.3c0.1,1,0.4,1.7,0.9,2.3c0.3,0.2,0.7,0.4,1.2,0.4
				c1.3,0,1.8-0.6,2.1-1.3c0.2-0.3,0.2-0.8,0.2-1.3v-5H101.8z"/>
			<path class="st0" d="M121.1,36.3c-0.1,1.5-0.4,2.8-1,3.9c-0.5,1-1.3,1.9-2.4,2.7c-1.1,0.8-2.6,1.2-4.6,1.2c-2,0-3.6-0.4-4.7-1.2
				c-1.1-0.7-1.8-1.7-2.3-2.7c-0.6-1.1-0.9-2.5-1-3.9V15c0.1-1.4,0.4-2.8,1-3.9c0.5-1,1.2-2,2.3-2.7c1.1-0.7,2.7-1.2,4.7-1.2
				c2,0,3.5,0.5,4.6,1.2s1.9,1.7,2.4,2.7c0.6,1.1,0.9,2.5,1,3.9V36.3z M115,15c0-1-0.2-1.7-0.8-2.3c-0.3-0.2-0.7-0.4-1.2-0.4
				c-1.1,0-1.6,0.7-1.8,1.3c-0.2,0.4-0.2,0.8-0.2,1.3v21.3c0,1,0.3,1.7,0.8,2.3c0.3,0.2,0.7,0.4,1.2,0.4c1.1,0,1.6-0.6,1.8-1.3
				c0.2-0.3,0.2-0.8,0.2-1.3V15z"/>
			<path class="st0" d="M125.1,7.6h6v31.2h8v4.9h-14V7.6z"/>
			<path class="st0" d="M140.5,43.7l6.2-36.1h7.4l6.2,36.1h-5.9l-1.1-7.4h-5.8l-1.1,7.4H140.5z M150.7,19.4l-0.2-0.9h-0.3l-0.2,0.9
				l-1.7,11.4h4.1L150.7,19.4z"/>
			<path class="st0" d="M171.6,43.7V7.6h4.7c5.6,0,8.6,1,10.2,3.7c1.6,2.8,1.8,7.3,1.8,14.3c0,7.1-0.2,11.5-1.8,14.3
				c-1.6,2.8-4.6,3.7-10.2,3.7H171.6z M177.6,38.4c2.1,0,3.2-0.2,3.8-2c0.3-0.8,0.5-2.1,0.6-3.8c0.1-1.7,0.1-4,0.1-7
				c0-2.9,0-5.3-0.1-7c-0.1-1.7-0.3-2.9-0.6-3.8c-0.6-1.7-1.8-1.9-3.8-1.9V38.4z"/>
			<path class="st0" d="M190.7,43.7l6.2-36.1h7.4l6.2,36.1h-5.9l-1.1-7.4h-5.8l-1.1,7.4H190.7z M200.9,19.4l-0.2-0.9h-0.3l-0.2,0.9
				l-1.7,11.4h4.1L200.9,19.4z"/>
			<path class="st0" d="M231.8,43.7L227.9,21l-0.2-1.5h-0.3v24.2h-5.6V7.6h7.4l3.6,16.5L233,26h0.1l0.3-1.9L237,7.6h7.4v36.1h-5.6
				V19.5h-0.3l-0.2,1.5l-3.8,22.7H231.8z"/>
			<path class="st0" d="M264.5,36.3c-0.1,1.5-0.4,2.8-1,3.9c-0.5,1-1.3,1.9-2.4,2.7c-1.1,0.8-2.6,1.2-4.6,1.2c-2,0-3.6-0.4-4.7-1.2
				c-1.1-0.7-1.8-1.7-2.3-2.7c-0.6-1.1-0.9-2.5-1-3.9V15c0.1-1.4,0.4-2.8,1-3.9c0.5-1,1.2-2,2.3-2.7c1.1-0.7,2.7-1.2,4.7-1.2
				c2,0,3.5,0.5,4.6,1.2s1.9,1.7,2.4,2.7c0.6,1.1,0.9,2.5,1,3.9V36.3z M258.4,15c0-1-0.2-1.7-0.8-2.3c-0.3-0.2-0.7-0.4-1.2-0.4
				c-1.1,0-1.6,0.7-1.8,1.3c-0.2,0.4-0.2,0.8-0.2,1.3v21.3c0,1,0.3,1.7,0.8,2.3c0.3,0.2,0.7,0.4,1.2,0.4c1.1,0,1.6-0.6,1.8-1.3
				c0.2-0.3,0.2-0.8,0.2-1.3V15z"/>
			<path class="st0" d="M279.5,7.6h5.9l-6.2,36.1h-6l-6.2-36.1h5.9l3,19.9l0.2,1.5h0.3l0.2-1.5L279.5,7.6z"/>
			<path class="st0" d="M288.1,7.6h6v36.1h-6V7.6z"/>
			<path class="st0" d="M308.5,43.7L304.7,21l-0.2-1.5h-0.3v24.2h-5.6V7.6h7.4l3.6,16.5l0.3,1.9h0.1l0.3-1.9l3.6-16.5h7.4v36.1h-5.6
				V19.5h-0.3l-0.2,1.5l-3.8,22.7H308.5z"/>
			<path class="st0" d="M325.5,7.6h13.8v5.5h-7.8v9.5h5.6v5.8h-5.6v9.9h7.8v5.5h-13.8V7.6z"/>
			<path class="st0" d="M349,24.9l-0.5-1.7h-0.3v20.5h-5.5V7.6h5.4l5.9,18.8l0.5,1.7h0.3V7.6h5.5v36.1h-5.4L349,24.9z"/>
			<path class="st0" d="M362.6,13.1V7.6H380v5.5h-5.7v30.7h-6V13.1H362.6z"/>
			<path class="st0" d="M379.4,43.7l6.2-36.1h7.4l6.2,36.1h-5.9l-1.1-7.4h-5.8l-1.1,7.4H379.4z M389.6,19.4l-0.2-0.9h-0.3l-0.2,0.9
				l-1.7,11.4h4.1L389.6,19.4z"/>
			<path class="st0" d="M417.6,31.4v5c-0.1,1.5-0.4,2.8-1,3.9c-0.5,1-1.3,1.9-2.4,2.7c-1.1,0.8-2.6,1.2-4.6,1.2
				c-2,0-3.6-0.4-4.7-1.2c-1.1-0.7-1.8-1.7-2.3-2.7c-0.6-1.1-0.9-2.5-1-3.9V15c0.1-1.4,0.4-2.8,1-3.9c0.5-1,1.2-2,2.3-2.7
				c1.1-0.7,2.7-1.2,4.7-1.2c2,0,3.5,0.5,4.6,1.2c1.1,0.7,1.9,1.7,2.4,2.7c0.6,1.1,0.9,2.5,1,3.9v5H412v-5c0-1-0.3-1.7-0.9-2.3
				c-0.3-0.2-0.8-0.4-1.4-0.4c-1.1,0-1.6,0.7-1.8,1.3c-0.2,0.4-0.2,0.8-0.3,1.3v21.3c0.1,1,0.4,1.7,0.9,2.3c0.3,0.2,0.7,0.4,1.2,0.4
				c1.3,0,1.8-0.6,2.1-1.3c0.2-0.3,0.2-0.8,0.2-1.3v-5H417.6z M411.7,49.8l-1.2,3.2h-2.8l1.1-3.2H407v-3.4h4.7V49.8z"/>
			<path class="st0" d="M419.6,43.7l6.2-36.1h7.4l6.2,36.1h-5.9l-1.1-7.4h-5.8l-1.1,7.4H419.6z M424.1,0.9c0.5-0.3,1.2-0.6,1.8-0.8
				C426.2,0,426.6,0,427,0c0.8,0,1.7,0.1,2.5,0.4c0.8,0.3,1.6,0.5,2.5,0.5c0.8,0,1.5-0.2,2.1-0.4c0.3-0.1,0.6-0.2,0.9-0.4v3.6
				c-0.5,0.4-1.2,0.6-1.8,0.8c-0.3,0.1-0.7,0.1-1.1,0.1c-0.8,0-1.7-0.1-2.4-0.4c-0.8-0.3-1.6-0.4-2.5-0.5c-0.8,0-1.5,0.2-2.1,0.4
				c-0.3,0.1-0.6,0.2-0.9,0.4V0.9z M429.8,19.4l-0.2-0.9h-0.3l-0.2,0.9l-1.7,11.4h4.1L429.8,19.4z"/>
			<path class="st0" d="M457.8,36.3c-0.1,1.5-0.4,2.8-1,3.9c-0.5,1-1.3,1.9-2.4,2.7c-1.1,0.8-2.6,1.2-4.6,1.2s-3.6-0.4-4.7-1.2
				c-1.1-0.7-1.8-1.7-2.3-2.7c-0.6-1.1-0.9-2.5-1-3.9V15c0.1-1.4,0.4-2.8,1-3.9c0.5-1,1.2-2,2.3-2.7c1.1-0.7,2.7-1.2,4.7-1.2
				s3.5,0.5,4.6,1.2s1.9,1.7,2.4,2.7c0.6,1.1,0.9,2.5,1,3.9V36.3z M451.8,15c0-1-0.2-1.7-0.8-2.3c-0.3-0.2-0.7-0.4-1.2-0.4
				c-1.1,0-1.6,0.7-1.8,1.3c-0.2,0.4-0.2,0.8-0.2,1.3v21.3c0,1,0.3,1.7,0.8,2.3c0.3,0.2,0.7,0.4,1.2,0.4c1.1,0,1.6-0.6,1.8-1.3
				c0.2-0.3,0.2-0.8,0.2-1.3V15z"/>
		</g>
	</g>
	<rect x="0" y="4.9" class="st1" width="42.8" height="42.8"/>
	<g>
		<g>
			<polygon class="st2" points="42.8,22.9 30.9,10.9 17.9,11 14.9,23.2 19.3,27.6 14.5,39.9 22.3,47.7 42.8,47.7 			"/>
		</g>
	</g>
	<g>
		<path class="st3" d="M26.9,30.6c-0.9,1.1-2.4,4.4-2.8,4.8c-0.7,0.9-1.7,1.3-2.6,1.3c-1.9,0-3.4-1.5-3.4-3.4c0-1.2,0.6-2.1,1.6-2.9
			c1.1-0.8,2.6-1.9,3.2-2.6c0.6-0.8,0.9-1.6,1-2.8h-4.1c-0.1,0.6-0.6,1.1-2,1.7c-1.9,0.8-5.7,3-5.6,8.2c0.1,5.1,5.4,7.4,8,7.4
			c3.3,0,6.4-1.1,7.5-4.7c0.7-2.4-0.1-3.6,1-5.9c0.5-1.1,0.8-1.7,0.5-1.9C28.8,29.3,27.9,29.3,26.9,30.6L26.9,30.6z"/>
		<path class="st3" d="M23.2,19.8h-3.6l-1.8-3.1l1.8-3.1h3.6l1.8,3.1L23.2,19.8z M31.1,11c-0.4-0.5-0.9-0.8-1.5-0.8H13.4
			c-0.6,0-1.2,0.3-1.6,0.8c-0.4,0.5-0.5,1.2-0.3,1.8l2.8,9.3c0.3,0.9,1.2,1.6,2.1,1.6h10.1c1.2,0,2.3-0.8,2.6-2l2.3-9
			C31.6,12.1,31.4,11.5,31.1,11L31.1,11z"/>
	</g>
	<g>
		<path class="st0" d="M459.3,54v18.2H1V54H459.3 M460.3,53H0v20.2h460.3V53L460.3,53z"/>
	</g>
	<g>
		<path class="st0" d="M129.3,62.9h-6.3v1.6c0,0.7,0.6,1.1,1.7,1.1h5V67h-5.5c-0.9,0-1.7-0.2-2.2-0.5c-0.6-0.4-0.9-0.9-0.9-1.6v-5.4
			c0-0.7,0.3-1.2,0.8-1.6c0.5-0.4,1.2-0.6,2.1-0.6h5.7v1.4h-5c-1.1,0-1.7,0.4-1.7,1.1v1.7h6.3V62.9z"/>
		<path class="st0" d="M133.9,67h-1.7v-9.7h1.7V67z"/>
		<path class="st0" d="M144.3,62.6l-6.5,1.9v0.2c0,0.4,0.1,0.7,0.4,0.8c0.2,0.1,0.5,0.2,1,0.2h5V67h-5.3c-0.9,0-1.6-0.1-2-0.4
			c-0.6-0.3-0.8-0.9-0.8-1.6v-3.4c0-1.2,0.9-1.8,2.7-1.8h3c1.7,0,2.5,0.7,2.5,2V62.6z M142.5,61.9v-0.1c0-0.6-0.5-0.8-1.4-0.8h-1.9
			c-1,0-1.6,0.3-1.6,0.9v1.4L142.5,61.9z"/>
		<path class="st0" d="M154.9,59.6l-3.8,6.9c-0.2,0.4-0.6,0.6-1.1,0.6s-0.9-0.2-1.1-0.6l-3.8-6.9h1.8l3.2,5.8l3.2-5.8H154.9z"/>
		<path class="st0" d="M164,65.2c0,0.5-0.2,1-0.6,1.3c-0.4,0.3-1,0.5-1.8,0.5h-3.2c-0.8,0-1.4-0.1-1.9-0.4c-0.5-0.3-0.8-0.8-0.8-1.3
			v-1.3c0-0.6,0.2-1,0.7-1.4c0.4-0.3,1.1-0.5,1.8-0.5h4.1c0-0.4-0.1-0.7-0.2-0.9c-0.2-0.2-0.5-0.3-1.1-0.3h-5.2v-1.2h5.5
			c1.8,0,2.8,0.6,2.8,1.8V65.2z M162.3,64.9v-1.4c0-0.2-0.1-0.2-0.4-0.2h-3.2c-0.8,0-1.2,0.3-1.2,0.9v0.7c0,0.3,0.1,0.5,0.4,0.6
			c0.2,0.1,0.5,0.2,0.9,0.2h2.4C161.9,65.7,162.3,65.5,162.3,64.9z"/>
		<path class="st0" d="M172.2,67v-4.6c0-0.7-0.5-1.1-1.4-1.1h-1.9c-1,0-1.4,0.4-1.4,1.1V67h-1.7v-5c0-1.5,0.9-2.2,2.6-2.2h3
			c1.7,0,2.6,0.7,2.6,2.2v5H172.2z"/>
		<path class="st0" d="M184.2,57.3v7.6c0,0.7-0.3,1.2-0.8,1.6c-0.5,0.3-1.2,0.5-1.9,0.5h-3c-1.7,0-2.6-0.7-2.6-2v-3.5
			c0-0.6,0.2-1.1,0.7-1.4c0.5-0.4,1.1-0.5,1.9-0.5h4.1v-2.3H184.2z M182.5,64.8v-3.6c0-0.2-0.1-0.3-0.4-0.3H179
			c-0.9,0-1.4,0.3-1.4,1v2.8c0,0.4,0.1,0.6,0.3,0.8c0.2,0.2,0.6,0.3,1.1,0.3h2.1C182.1,65.7,182.5,65.4,182.5,64.8z"/>
		<path class="st0" d="M194.4,65.2c0,0.6-0.3,1.1-0.8,1.4c-0.4,0.3-1,0.4-1.8,0.4h-2.9c-0.9,0-1.6-0.2-2-0.5
			c-0.4-0.3-0.7-0.8-0.7-1.3v-3.6c0-0.6,0.3-1.1,0.9-1.5c0.4-0.3,1-0.4,1.8-0.4h2.9c0.8,0,1.4,0.1,1.8,0.4c0.5,0.3,0.8,0.8,0.8,1.5
			V65.2z M192.7,64.8v-2.9c0-0.3-0.1-0.6-0.4-0.7c-0.2-0.1-0.5-0.2-1-0.2h-2c-0.5,0-0.8,0.1-1,0.2c-0.3,0.2-0.4,0.4-0.4,0.7v2.9
			c0,0.3,0.1,0.6,0.4,0.7c0.2,0.1,0.5,0.2,0.9,0.2h2.3c0.4,0,0.7-0.1,0.9-0.2C192.5,65.4,192.7,65.2,192.7,64.8z"/>
		<path class="st0" d="M209.6,61h-4.5c-0.4,0-0.7,0-0.9,0.1c-0.3,0.1-0.4,0.3-0.4,0.5v0.3c0,0.5,0.5,0.8,1.4,0.8h2.2
			c0.6,0,1.2,0.2,1.6,0.5c0.4,0.3,0.6,0.7,0.6,1.2v0.9c0,0.5-0.2,0.9-0.6,1.2c-0.3,0.2-0.5,0.4-0.8,0.4c-0.2,0.1-0.6,0.1-1,0.1h-5.1
			v-1.2h4.6c0.5,0,0.8-0.1,1-0.3c0.1-0.1,0.2-0.4,0.2-0.8c0-0.5-0.4-0.7-1.1-0.7h-2.1c-0.7,0-1.3-0.1-1.8-0.4
			c-0.5-0.3-0.8-0.7-0.8-1.2v-1c0-0.5,0.3-1,0.9-1.3c0.4-0.2,0.9-0.3,1.7-0.3h4.9V61z"/>
		<path class="st0" d="M219.8,62.6l-6.5,1.9v0.2c0,0.4,0.1,0.7,0.4,0.8c0.2,0.1,0.5,0.2,1,0.2h5V67h-5.3c-0.9,0-1.6-0.1-2-0.4
			c-0.6-0.3-0.8-0.9-0.8-1.6v-3.4c0-1.2,0.9-1.8,2.7-1.8h3c1.7,0,2.5,0.7,2.5,2V62.6z M218.1,61.9v-0.1c0-0.6-0.5-0.8-1.4-0.8h-1.9
			c-1,0-1.6,0.3-1.6,0.9v1.4L218.1,61.9z"/>
		<path class="st0" d="M223.3,59.7v4.5c0,0.4,0.1,0.7,0.4,0.9c0.2,0.2,0.6,0.3,1.1,0.3h1.8c1,0,1.5-0.4,1.5-1.1v-4.5h1.7v5
			c0,1.5-0.9,2.3-2.7,2.3h-2.9c-1.8,0-2.7-0.8-2.7-2.3v-5H223.3z"/>
		<path class="st0" d="M244.4,67h-3.9c-1.8,0-2.8-0.6-2.8-1.9v-3.5c0-1.2,0.8-1.8,2.3-1.8h4.3v1.2h-3.5c-0.5,0-0.8,0.1-1,0.2
			c-0.2,0.1-0.3,0.4-0.3,0.7v2.9c0,0.6,0.5,1,1.4,1h3.5V67z"/>
		<path class="st0" d="M254.1,65.2c0,0.6-0.3,1.1-0.8,1.4c-0.4,0.3-1,0.4-1.8,0.4h-2.9c-0.9,0-1.6-0.2-2-0.5
			c-0.4-0.3-0.7-0.8-0.7-1.3v-3.6c0-0.6,0.3-1.1,0.9-1.5c0.4-0.3,1-0.4,1.8-0.4h2.9c0.8,0,1.4,0.1,1.8,0.4c0.5,0.3,0.8,0.8,0.8,1.5
			V65.2z M252.4,64.8v-2.9c0-0.3-0.1-0.6-0.4-0.7c-0.2-0.1-0.5-0.2-1-0.2h-2c-0.5,0-0.8,0.1-1,0.2c-0.3,0.2-0.4,0.4-0.4,0.7v2.9
			c0,0.3,0.1,0.6,0.4,0.7c0.2,0.1,0.5,0.2,0.9,0.2h2.3c0.4,0,0.7-0.1,0.9-0.2C252.3,65.4,252.4,65.2,252.4,64.8z"/>
		<path class="st0" d="M262.4,67v-4.6c0-0.7-0.5-1.1-1.4-1.1H259c-1,0-1.4,0.4-1.4,1.1V67h-1.7v-5c0-1.5,0.9-2.2,2.6-2.2h3
			c1.7,0,2.6,0.7,2.6,2.2v5H262.4z"/>
		<path class="st0" d="M267.8,57.3v2.4h3.8c1.8,0,2.7,0.8,2.7,2.3v4.9h-1.7v-4.3c0-0.5-0.1-0.8-0.3-1c-0.2-0.2-0.6-0.3-1.1-0.3h-3.1
			c-0.3,0-0.4,0.1-0.4,0.4V67h-1.7v-9.6H267.8z"/>
		<path class="st0" d="M284.6,62.6l-6.5,1.9v0.2c0,0.4,0.1,0.7,0.4,0.8c0.2,0.1,0.5,0.2,1,0.2h5V67h-5.3c-0.9,0-1.6-0.1-2-0.4
			c-0.6-0.3-0.8-0.9-0.8-1.6v-3.4c0-1.2,0.9-1.8,2.7-1.8h3c1.7,0,2.5,0.7,2.5,2V62.6z M282.9,61.9v-0.1c0-0.6-0.5-0.8-1.4-0.8h-1.9
			c-1,0-1.6,0.3-1.6,0.9v1.4L282.9,61.9z"/>
		<path class="st0" d="M293.1,67h-3.9c-1.8,0-2.8-0.6-2.8-1.9v-3.5c0-1.2,0.8-1.8,2.3-1.8h4.3v1.2h-3.5c-0.5,0-0.8,0.1-1,0.2
			c-0.2,0.1-0.3,0.4-0.3,0.7v2.9c0,0.6,0.5,1,1.4,1h3.5V67z"/>
		<path class="st0" d="M296.2,67h-1.7v-7.3h1.7V67z M296.2,57.3v1.3h-1.6v-1.3H296.2z"/>
		<path class="st0" d="M308.9,66.9v-4.4c0-0.6-0.2-1-0.7-1.1c-0.2-0.1-0.7-0.1-1.6-0.1c-0.4,0-0.7,0.1-0.9,0.4
			c-0.2,0.2-0.2,0.5-0.2,0.9v4.4h-1.7v-4.4c0-0.6-0.2-1-0.6-1.2c-0.2-0.1-0.7-0.1-1.6-0.1c-0.9,0-1.3,0.4-1.3,1.2l0,4.4h-1.7v-4.8
			c0-1.6,0.8-2.4,2.5-2.4h1.5c0.5,0,0.9,0.1,1.2,0.2c0.3,0.1,0.6,0.4,0.8,0.7c0.5-0.6,1.1-0.9,2-0.9h1.5c0.8,0,1.3,0.2,1.8,0.6
			c0.4,0.4,0.7,1,0.7,1.7v4.8H308.9z"/>
		<path class="st0" d="M320.9,62.6l-6.5,1.9v0.2c0,0.4,0.1,0.7,0.4,0.8c0.2,0.1,0.5,0.2,1,0.2h5V67h-5.3c-0.9,0-1.6-0.1-2-0.4
			c-0.6-0.3-0.8-0.9-0.8-1.6v-3.4c0-1.2,0.9-1.8,2.7-1.8h3c1.7,0,2.5,0.7,2.5,2V62.6z M319.1,61.9v-0.1c0-0.6-0.5-0.8-1.4-0.8h-1.9
			c-1,0-1.6,0.3-1.6,0.9v1.4L319.1,61.9z"/>
		<path class="st0" d="M328.7,67v-4.6c0-0.7-0.5-1.1-1.4-1.1h-1.9c-1,0-1.4,0.4-1.4,1.1V67h-1.7v-5c0-1.5,0.9-2.2,2.6-2.2h3
			c1.7,0,2.6,0.7,2.6,2.2v5H328.7z"/>
		<path class="st0" d="M336.3,61h-2.2V67h-1.7v-9.7h1.7v2.5h2.2V61z"/>
		<path class="st0" d="M346.3,65.2c0,0.6-0.3,1.1-0.8,1.4c-0.4,0.3-1,0.4-1.8,0.4h-2.9c-0.9,0-1.6-0.2-2-0.5
			c-0.4-0.3-0.7-0.8-0.7-1.3v-3.6c0-0.6,0.3-1.1,0.9-1.5c0.4-0.3,1-0.4,1.8-0.4h2.9c0.8,0,1.4,0.1,1.8,0.4c0.5,0.3,0.8,0.8,0.8,1.5
			V65.2z M344.6,64.8v-2.9c0-0.3-0.1-0.6-0.4-0.7c-0.2-0.1-0.5-0.2-1-0.2h-2c-0.5,0-0.8,0.1-1,0.2c-0.3,0.2-0.4,0.4-0.4,0.7v2.9
			c0,0.3,0.1,0.6,0.4,0.7c0.2,0.1,0.5,0.2,0.9,0.2h2.3c0.4,0,0.7-0.1,0.9-0.2C344.5,65.4,344.6,65.2,344.6,64.8z"/>
	</g>
</g>
</svg>
